<svg width="24" height="24" viewBox="0 0 24 24" fill="none" xmlns="http://www.w3.org/2000/svg">
<path d="M21.913 6.21739H18.6052L16.6957 4.13043H10.4348V6.21739H15.7774L17.687 8.30435H21.913V20.8261H5.21739V11.4348H3.13043V20.8261C3.13043 21.9739 4.06957 22.913 5.21739 22.913H21.913C23.0609 22.913 24 21.9739 24 20.8261V8.30435C24 7.15652 23.0609 6.21739 21.913 6.21739ZM8.34783 14.5652C8.34783 17.4452 10.6852 19.7826 13.5652 19.7826C16.4452 19.7826 18.7826 17.4452 18.7826 14.5652C18.7826 11.6852 16.4452 9.34783 13.5652 9.34783C10.6852 9.34783 8.34783 11.6852 8.34783 14.5652ZM13.5652 11.4348C15.287 11.4348 16.6957 12.8435 16.6957 14.5652C16.6957 16.287 15.287 17.6957 13.5652 17.6957C11.8435 17.6957 10.4348 16.287 10.4348 14.5652C10.4348 12.8435 11.8435 11.4348 13.5652 11.4348ZM5.21739 6.21739H8.34783V4.13043H5.21739V1H3.13043V4.13043H0V6.21739H3.13043V9.34783H5.21739V6.21739Z" fill="#828385"/>
</svg>
